<mxfile host="app.diagrams.net" modified="2020-03-19T13:49:37.477Z" agent="Mozilla/5.0 (Windows NT 10.0; Win64; x64) AppleWebKit/537.36 (KHTML, like Gecko) Chrome/80.0.3987.132 Safari/537.36" etag="1vz73vlrsKMG5HceuKAJ" version="12.8.8" type="gitlab">
  <diagram id="emNID539-pXMUfD4VGAK" name="Page-1">
    <mxGraphModel dx="1888" dy="1647" grid="1" gridSize="10" guides="1" tooltips="1" connect="1" arrows="1" fold="1" page="1" pageScale="1" pageWidth="850" pageHeight="1100" math="0" shadow="0">
      <root>
        <mxCell id="0" />
        <mxCell id="1" parent="0" />
        <mxCell id="ssqRMr3fGbRzZ1t1TIG6-1" value="&lt;font color=&quot;#ff0000&quot;&gt;New Sate&lt;/font&gt;" style="ellipse;whiteSpace=wrap;html=1;strokeColor=#FF0000;" parent="1" vertex="1">
          <mxGeometry y="280" width="120" height="80" as="geometry" />
        </mxCell>
        <mxCell id="ssqRMr3fGbRzZ1t1TIG6-2" value="&lt;font color=&quot;#ff0000&quot;&gt;Ready/Runnable&lt;br&gt;State&lt;br&gt;&lt;/font&gt;" style="ellipse;whiteSpace=wrap;html=1;strokeColor=#FF0000;" parent="1" vertex="1">
          <mxGeometry x="250" y="280" width="120" height="80" as="geometry" />
        </mxCell>
        <mxCell id="ssqRMr3fGbRzZ1t1TIG6-3" value="&lt;font color=&quot;#ff0000&quot;&gt;Running&lt;br&gt;State&lt;br&gt;&lt;/font&gt;" style="ellipse;whiteSpace=wrap;html=1;strokeColor=#FF0000;" parent="1" vertex="1">
          <mxGeometry x="640" y="280" width="120" height="80" as="geometry" />
        </mxCell>
        <mxCell id="ssqRMr3fGbRzZ1t1TIG6-4" value="&lt;font color=&quot;#ff0000&quot;&gt;Terminated State&lt;/font&gt;" style="ellipse;whiteSpace=wrap;html=1;strokeColor=#FF0000;" parent="1" vertex="1">
          <mxGeometry x="920" y="280" width="120" height="80" as="geometry" />
        </mxCell>
        <mxCell id="ssqRMr3fGbRzZ1t1TIG6-8" value="" style="endArrow=classic;html=1;entryX=0;entryY=0.5;entryDx=0;entryDy=0;strokeColor=#660000;exitX=1;exitY=0.5;exitDx=0;exitDy=0;" parent="1" source="ssqRMr3fGbRzZ1t1TIG6-1" target="ssqRMr3fGbRzZ1t1TIG6-2" edge="1">
          <mxGeometry width="50" height="50" relative="1" as="geometry">
            <mxPoint x="200" y="319.5" as="sourcePoint" />
            <mxPoint x="290" y="319.5" as="targetPoint" />
          </mxGeometry>
        </mxCell>
        <mxCell id="ssqRMr3fGbRzZ1t1TIG6-9" value="" style="endArrow=classic;html=1;strokeColor=#660000;exitX=1;exitY=0.5;exitDx=0;exitDy=0;" parent="1" source="ssqRMr3fGbRzZ1t1TIG6-2" edge="1">
          <mxGeometry width="50" height="50" relative="1" as="geometry">
            <mxPoint x="390" y="319.5" as="sourcePoint" />
            <mxPoint x="640" y="321" as="targetPoint" />
          </mxGeometry>
        </mxCell>
        <mxCell id="ssqRMr3fGbRzZ1t1TIG6-10" value="" style="endArrow=classic;html=1;entryX=0;entryY=0.5;entryDx=0;entryDy=0;strokeColor=#660000;" parent="1" target="ssqRMr3fGbRzZ1t1TIG6-4" edge="1">
          <mxGeometry width="50" height="50" relative="1" as="geometry">
            <mxPoint x="760" y="319.5" as="sourcePoint" />
            <mxPoint x="880" y="320" as="targetPoint" />
          </mxGeometry>
        </mxCell>
        <mxCell id="ssqRMr3fGbRzZ1t1TIG6-12" value="t.start()" style="text;html=1;align=center;verticalAlign=middle;resizable=0;points=[];autosize=1;" parent="1" vertex="1">
          <mxGeometry x="178" y="300" width="50" height="20" as="geometry" />
        </mxCell>
        <mxCell id="ssqRMr3fGbRzZ1t1TIG6-13" value="Thread t=new Thread(...);" style="text;html=1;align=center;verticalAlign=middle;resizable=0;points=[];autosize=1;" parent="1" vertex="1">
          <mxGeometry x="25" y="250" width="150" height="20" as="geometry" />
        </mxCell>
        <mxCell id="ssqRMr3fGbRzZ1t1TIG6-14" value="&lt;font color=&quot;#0000cc&quot;&gt;If thread scheduler allocate processor&lt;/font&gt;" style="text;html=1;strokeColor=none;fillColor=none;align=center;verticalAlign=middle;whiteSpace=wrap;rounded=0;" parent="1" vertex="1">
          <mxGeometry x="390" y="300" width="230" height="20" as="geometry" />
        </mxCell>
        <mxCell id="ssqRMr3fGbRzZ1t1TIG6-15" value="&lt;font color=&quot;#0000ff&quot;&gt;Thread Creation&lt;/font&gt;" style="text;html=1;align=center;verticalAlign=middle;resizable=0;points=[];autosize=1;" parent="1" vertex="1">
          <mxGeometry x="50" y="220" width="100" height="20" as="geometry" />
        </mxCell>
        <mxCell id="ssqRMr3fGbRzZ1t1TIG6-21" value="&lt;font color=&quot;#0000ff&quot;&gt;If run() method completes&lt;/font&gt;" style="text;html=1;align=center;verticalAlign=middle;resizable=0;points=[];autosize=1;" parent="1" vertex="1">
          <mxGeometry x="760" y="300" width="150" height="20" as="geometry" />
        </mxCell>
        <mxCell id="ssqRMr3fGbRzZ1t1TIG6-22" value="" style="endArrow=classic;html=1;strokeColor=#660000;entryX=0.683;entryY=0.017;entryDx=0;entryDy=0;entryPerimeter=0;exitX=0.333;exitY=0.017;exitDx=0;exitDy=0;exitPerimeter=0;" parent="1" source="ssqRMr3fGbRzZ1t1TIG6-3" target="ssqRMr3fGbRzZ1t1TIG6-2" edge="1">
          <mxGeometry width="50" height="50" relative="1" as="geometry">
            <mxPoint x="660" y="290" as="sourcePoint" />
            <mxPoint x="780" y="160" as="targetPoint" />
            <Array as="points">
              <mxPoint x="620" y="220" />
              <mxPoint x="400" y="220" />
            </Array>
          </mxGeometry>
        </mxCell>
        <mxCell id="ssqRMr3fGbRzZ1t1TIG6-23" value="Thread.yield()" style="text;html=1;strokeColor=none;fillColor=none;align=center;verticalAlign=middle;whiteSpace=wrap;rounded=0;fontColor=#330066;" parent="1" vertex="1">
          <mxGeometry x="495" y="200" width="40" height="20" as="geometry" />
        </mxCell>
        <mxCell id="ssqRMr3fGbRzZ1t1TIG6-25" value="&lt;ul&gt;&lt;li&gt;&lt;font color=&quot;#994c00&quot;&gt;If time of sleeping expires&lt;/font&gt;&lt;/li&gt;&lt;li&gt;&lt;font color=&quot;#994c00&quot;&gt;sleeping thread got interrupted&lt;/font&gt;&lt;/li&gt;&lt;/ul&gt;" style="text;html=1;align=left;verticalAlign=middle;resizable=0;points=[];autosize=1;" parent="1" vertex="1">
          <mxGeometry x="220" y="-50" width="220" height="60" as="geometry" />
        </mxCell>
        <mxCell id="ssqRMr3fGbRzZ1t1TIG6-27" value="&lt;ul&gt;&lt;li&gt;Pause current executing thread&lt;/li&gt;&lt;li&gt;Give chance all waiting thread having same priority&amp;nbsp;&lt;/li&gt;&lt;/ul&gt;" style="text;html=1;align=left;verticalAlign=middle;resizable=0;points=[];autosize=1;fontColor=#994C00;" parent="1" vertex="1">
          <mxGeometry x="340" y="230" width="330" height="60" as="geometry" />
        </mxCell>
        <mxCell id="ssqRMr3fGbRzZ1t1TIG6-35" value="&lt;font color=&quot;#009900&quot;&gt;waiting state&lt;br&gt;[blocked for joining]&lt;br&gt;&lt;/font&gt;" style="ellipse;whiteSpace=wrap;html=1;strokeColor=#009900;" parent="1" vertex="1">
          <mxGeometry x="445" y="80" width="120" height="80" as="geometry" />
        </mxCell>
        <mxCell id="ssqRMr3fGbRzZ1t1TIG6-39" value="" style="endArrow=classic;html=1;strokeColor=#660000;fontColor=#330066;" parent="1" edge="1">
          <mxGeometry width="50" height="50" relative="1" as="geometry">
            <mxPoint x="690" y="280" as="sourcePoint" />
            <mxPoint x="570" y="120" as="targetPoint" />
            <Array as="points">
              <mxPoint x="690" y="120" />
              <mxPoint x="630" y="120" />
            </Array>
          </mxGeometry>
        </mxCell>
        <mxCell id="ssqRMr3fGbRzZ1t1TIG6-40" value="" style="endArrow=classic;html=1;strokeColor=#660000;fontColor=#330066;entryX=0.5;entryY=0;entryDx=0;entryDy=0;" parent="1" target="ssqRMr3fGbRzZ1t1TIG6-2" edge="1">
          <mxGeometry width="50" height="50" relative="1" as="geometry">
            <mxPoint x="440" y="120" as="sourcePoint" />
            <mxPoint x="560" y="300" as="targetPoint" />
            <Array as="points">
              <mxPoint x="310" y="120" />
            </Array>
          </mxGeometry>
        </mxCell>
        <mxCell id="ssqRMr3fGbRzZ1t1TIG6-41" value="&lt;font color=&quot;#ff66b3&quot;&gt;Sleeping state&lt;/font&gt;" style="ellipse;whiteSpace=wrap;html=1;strokeColor=#FF66B3;" parent="1" vertex="1">
          <mxGeometry x="430" y="-40" width="120" height="80" as="geometry" />
        </mxCell>
        <mxCell id="ssqRMr3fGbRzZ1t1TIG6-42" value="" style="endArrow=classic;html=1;strokeColor=#660000;fontColor=#330066;entryX=1;entryY=0.5;entryDx=0;entryDy=0;" parent="1" target="ssqRMr3fGbRzZ1t1TIG6-41" edge="1">
          <mxGeometry width="50" height="50" relative="1" as="geometry">
            <mxPoint x="720" y="280" as="sourcePoint" />
            <mxPoint x="760" y="250" as="targetPoint" />
            <Array as="points">
              <mxPoint x="720" />
            </Array>
          </mxGeometry>
        </mxCell>
        <mxCell id="ssqRMr3fGbRzZ1t1TIG6-43" value="" style="endArrow=classic;html=1;strokeColor=#660000;fontColor=#330066;" parent="1" edge="1">
          <mxGeometry width="50" height="50" relative="1" as="geometry">
            <mxPoint x="430" as="sourcePoint" />
            <mxPoint x="280" y="280" as="targetPoint" />
            <Array as="points">
              <mxPoint x="280" />
            </Array>
          </mxGeometry>
        </mxCell>
        <mxCell id="ssqRMr3fGbRzZ1t1TIG6-44" value="&lt;ul&gt;&lt;li&gt;Thread.sleep(1000ms)&lt;/li&gt;&lt;li&gt;Thread.sleep(1000ms,100ns)&lt;/li&gt;&lt;/ul&gt;" style="text;html=1;strokeColor=none;fillColor=none;align=left;verticalAlign=middle;whiteSpace=wrap;rounded=0;fontColor=#330066;" parent="1" vertex="1">
          <mxGeometry x="525" y="-40" width="40" height="20" as="geometry" />
        </mxCell>
        <mxCell id="ssqRMr3fGbRzZ1t1TIG6-45" value="Text" style="text;html=1;align=center;verticalAlign=middle;resizable=0;points=[];autosize=1;fontColor=#330066;" parent="1" vertex="1">
          <mxGeometry x="100" y="1000" width="40" height="20" as="geometry" />
        </mxCell>
        <mxCell id="ssqRMr3fGbRzZ1t1TIG6-47" value="&lt;ul&gt;&lt;li style=&quot;text-align: left&quot;&gt;t.join()&lt;/li&gt;&lt;li style=&quot;text-align: left&quot;&gt;t.join(1000ms)&lt;/li&gt;&lt;li style=&quot;text-align: left&quot;&gt;t.join(1000ms.100ns)&lt;/li&gt;&lt;/ul&gt;" style="text;html=1;align=center;verticalAlign=middle;resizable=0;points=[];autosize=1;fontColor=#330066;" parent="1" vertex="1">
          <mxGeometry x="535" y="60" width="170" height="70" as="geometry" />
        </mxCell>
        <mxCell id="ssqRMr3fGbRzZ1t1TIG6-50" value="&lt;ul style=&quot;text-align: left&quot;&gt;&lt;li style=&quot;color: rgb(0 , 0 , 0)&quot;&gt;&lt;font color=&quot;#994c00&quot;&gt;If execution of thread complete&lt;/font&gt;&lt;/li&gt;&lt;li&gt;&lt;font color=&quot;#994c00&quot;&gt;If time expires&lt;/font&gt;&lt;/li&gt;&lt;li&gt;&lt;font color=&quot;#994c00&quot;&gt;If waiting thread got interrupted&lt;/font&gt;&lt;/li&gt;&lt;/ul&gt;" style="text;html=1;align=center;verticalAlign=middle;resizable=0;points=[];autosize=1;fontColor=#330066;" parent="1" vertex="1">
          <mxGeometry x="250" y="40" width="220" height="70" as="geometry" />
        </mxCell>
        <mxCell id="ssqRMr3fGbRzZ1t1TIG6-56" style="edgeStyle=orthogonalEdgeStyle;rounded=0;orthogonalLoop=1;jettySize=auto;html=1;entryX=1;entryY=0.5;entryDx=0;entryDy=0;strokeColor=#660000;fontColor=#330066;" parent="1" source="ssqRMr3fGbRzZ1t1TIG6-53" target="ssqRMr3fGbRzZ1t1TIG6-54" edge="1">
          <mxGeometry relative="1" as="geometry" />
        </mxCell>
        <mxCell id="ssqRMr3fGbRzZ1t1TIG6-53" value="&lt;font color=&quot;#009900&quot;&gt;&lt;br&gt;waiting state&lt;br&gt;&lt;br&gt;&lt;/font&gt;" style="ellipse;whiteSpace=wrap;html=1;strokeColor=#009900;" parent="1" vertex="1">
          <mxGeometry x="620" y="480" width="120" height="80" as="geometry" />
        </mxCell>
        <mxCell id="ssqRMr3fGbRzZ1t1TIG6-54" value="&lt;font color=&quot;#009900&quot;&gt;Timed Waiting state&lt;br&gt;&lt;/font&gt;" style="ellipse;whiteSpace=wrap;html=1;strokeColor=#009900;" parent="1" vertex="1">
          <mxGeometry x="290" y="480" width="120" height="80" as="geometry" />
        </mxCell>
        <mxCell id="ssqRMr3fGbRzZ1t1TIG6-74" value="" style="endArrow=classic;html=1;strokeColor=#660000;fontColor=#330066;exitX=0.587;exitY=1.042;exitDx=0;exitDy=0;exitPerimeter=0;entryX=0.75;entryY=-0.042;entryDx=0;entryDy=0;entryPerimeter=0;" parent="1" source="ssqRMr3fGbRzZ1t1TIG6-3" target="ssqRMr3fGbRzZ1t1TIG6-53" edge="1">
          <mxGeometry width="50" height="50" relative="1" as="geometry">
            <mxPoint x="520" y="360" as="sourcePoint" />
            <mxPoint x="570" y="310" as="targetPoint" />
          </mxGeometry>
        </mxCell>
        <mxCell id="ssqRMr3fGbRzZ1t1TIG6-75" value="t.resume" style="text;html=1;strokeColor=none;fillColor=none;align=center;verticalAlign=middle;whiteSpace=wrap;rounded=0;fontColor=#330066;" parent="1" vertex="1">
          <mxGeometry x="320" y="620" width="40" height="20" as="geometry" />
        </mxCell>
        <mxCell id="ssqRMr3fGbRzZ1t1TIG6-76" value="&lt;ul&gt;&lt;li&gt;&lt;font color=&quot;#331a00&quot;&gt;object.wait()&lt;/font&gt;&lt;/li&gt;&lt;li&gt;&lt;font color=&quot;#331a00&quot;&gt;object.wait(1000ms)&lt;/font&gt;&lt;/li&gt;&lt;li&gt;&lt;font color=&quot;#331a00&quot;&gt;object.wait(1000ms,100ns)&lt;/font&gt;&lt;/li&gt;&lt;/ul&gt;" style="text;html=1;align=left;verticalAlign=middle;resizable=0;points=[];autosize=1;fontColor=#330066;" parent="1" vertex="1">
          <mxGeometry x="520" y="380" width="200" height="70" as="geometry" />
        </mxCell>
        <mxCell id="ssqRMr3fGbRzZ1t1TIG6-77" value="t.suspend()" style="text;html=1;strokeColor=none;fillColor=none;align=center;verticalAlign=middle;whiteSpace=wrap;rounded=0;fontColor=#330066;" parent="1" vertex="1">
          <mxGeometry x="610" y="620" width="40" height="20" as="geometry" />
        </mxCell>
        <mxCell id="ssqRMr3fGbRzZ1t1TIG6-78" value="&lt;ul&gt;&lt;li&gt;&lt;font color=&quot;#994c00&quot;&gt;If waiting thread got notification.&lt;/font&gt;&lt;/li&gt;&lt;li&gt;&lt;font color=&quot;#994c00&quot;&gt;if time expires&lt;/font&gt;&lt;/li&gt;&lt;li&gt;&lt;font color=&quot;#994c00&quot;&gt;If waiting thread got interrupted.&lt;/font&gt;&lt;/li&gt;&lt;/ul&gt;" style="text;html=1;align=left;verticalAlign=middle;resizable=0;points=[];autosize=1;fontColor=#330066;" parent="1" vertex="1">
          <mxGeometry x="400" y="460" width="220" height="70" as="geometry" />
        </mxCell>
        <mxCell id="XZ_ET_w5QgRAjZi853Qq-1" value="&lt;font color=&quot;#ea6b66&quot;&gt;suspended State&lt;/font&gt;" style="ellipse;whiteSpace=wrap;html=1;strokeColor=#EA6B66;" vertex="1" parent="1">
          <mxGeometry x="425" y="600" width="120" height="80" as="geometry" />
        </mxCell>
        <mxCell id="XZ_ET_w5QgRAjZi853Qq-6" value="" style="endArrow=classic;html=1;strokeColor=#660000;fontColor=#330066;exitX=0.587;exitY=1.042;exitDx=0;exitDy=0;exitPerimeter=0;entryX=1;entryY=0.5;entryDx=0;entryDy=0;" edge="1" parent="1" target="XZ_ET_w5QgRAjZi853Qq-1">
          <mxGeometry width="50" height="50" relative="1" as="geometry">
            <mxPoint x="750.44" y="346.7199999999999" as="sourcePoint" />
            <mxPoint x="750" y="459.9999999999999" as="targetPoint" />
            <Array as="points">
              <mxPoint x="750" y="640" />
            </Array>
          </mxGeometry>
        </mxCell>
        <mxCell id="XZ_ET_w5QgRAjZi853Qq-7" value="" style="endArrow=classic;html=1;entryX=0.053;entryY=0.788;entryDx=0;entryDy=0;entryPerimeter=0;" edge="1" parent="1" target="ssqRMr3fGbRzZ1t1TIG6-2">
          <mxGeometry width="50" height="50" relative="1" as="geometry">
            <mxPoint x="420" y="640" as="sourcePoint" />
            <mxPoint x="160" y="395" as="targetPoint" />
            <Array as="points">
              <mxPoint x="256" y="640" />
            </Array>
          </mxGeometry>
        </mxCell>
        <mxCell id="XZ_ET_w5QgRAjZi853Qq-10" value="Text" style="text;html=1;strokeColor=none;fillColor=none;align=center;verticalAlign=middle;whiteSpace=wrap;rounded=0;" vertex="1" parent="1">
          <mxGeometry x="170" y="210" width="40" height="20" as="geometry" />
        </mxCell>
        <mxCell id="XZ_ET_w5QgRAjZi853Qq-11" value="&lt;font color=&quot;#99004d&quot;&gt;start() method&lt;br&gt;&lt;ul&gt;&lt;li style=&quot;text-align: left&quot;&gt;&lt;font color=&quot;#99004d&quot;&gt;register thread with thread scheduler.&lt;/font&gt;&lt;/li&gt;&lt;li style=&quot;text-align: left&quot;&gt;&lt;font color=&quot;#99004d&quot;&gt;start a new thread in java&lt;/font&gt;&lt;/li&gt;&lt;li style=&quot;text-align: left&quot;&gt;&lt;font color=&quot;#99004d&quot;&gt;invoke run() method&lt;/font&gt;&lt;/li&gt;&lt;/ul&gt;&lt;/font&gt;" style="text;html=1;align=center;verticalAlign=middle;resizable=0;points=[];autosize=1;" vertex="1" parent="1">
          <mxGeometry x="-22" y="380" width="250" height="90" as="geometry" />
        </mxCell>
        <mxCell id="XZ_ET_w5QgRAjZi853Qq-12" value="" style="endArrow=classic;html=1;entryX=0.037;entryY=0.193;entryDx=0;entryDy=0;entryPerimeter=0;exitX=1;exitY=0;exitDx=0;exitDy=0;" edge="1" parent="1" source="ssqRMr3fGbRzZ1t1TIG6-3" target="ssqRMr3fGbRzZ1t1TIG6-4">
          <mxGeometry width="50" height="50" relative="1" as="geometry">
            <mxPoint x="760" y="340" as="sourcePoint" />
            <mxPoint x="810" y="290" as="targetPoint" />
            <Array as="points">
              <mxPoint x="760" y="240" />
              <mxPoint x="780" y="240" />
              <mxPoint x="910" y="240" />
            </Array>
          </mxGeometry>
        </mxCell>
        <mxCell id="XZ_ET_w5QgRAjZi853Qq-13" value="t.stop()" style="text;html=1;align=center;verticalAlign=middle;resizable=0;points=[];autosize=1;" vertex="1" parent="1">
          <mxGeometry x="800" y="220" width="50" height="20" as="geometry" />
        </mxCell>
        <mxCell id="XZ_ET_w5QgRAjZi853Qq-15" value="&lt;span style=&quot;color: rgb(153 , 0 , 77)&quot;&gt;sleep()&lt;/span&gt;&lt;br style=&quot;color: rgb(153 , 0 , 77)&quot;&gt;&lt;ul&gt;&lt;li style=&quot;text-align: left&quot;&gt;&lt;font color=&quot;#99004d&quot;&gt;if a thread doesn&#39;t&amp;nbsp;want to perform any operation, just want to&amp;nbsp;&lt;/font&gt;&lt;font color=&quot;#99004d&quot;&gt;take pause for few time, sleep() method needed&lt;/font&gt;&lt;/li&gt;&lt;li style=&quot;color: rgb(153 , 0 , 77) ; text-align: left&quot;&gt;&lt;font color=&quot;#99004d&quot;&gt;doesvnot release ownership of any object monitor&lt;/font&gt;&lt;/li&gt;&lt;/ul&gt;" style="shape=delay;whiteSpace=wrap;html=1;strokeColor=#EA6B66;" vertex="1" parent="1">
          <mxGeometry x="800" y="-30" width="350" height="80" as="geometry" />
        </mxCell>
        <mxCell id="XZ_ET_w5QgRAjZi853Qq-16" value="&lt;span style=&quot;color: rgb(153 , 0 , 77)&quot;&gt;join()&lt;/span&gt;&lt;br style=&quot;color: rgb(153 , 0 , 77)&quot;&gt;&lt;ul style=&quot;color: rgb(153 , 0 , 77)&quot;&gt;&lt;li style=&quot;text-align: left&quot;&gt;If a thread want to wait until completion of some other thread and then execute&lt;/li&gt;&lt;/ul&gt;" style="shape=delay;whiteSpace=wrap;html=1;strokeColor=#EA6B66;" vertex="1" parent="1">
          <mxGeometry x="800" y="80" width="350" height="80" as="geometry" />
        </mxCell>
        <mxCell id="XZ_ET_w5QgRAjZi853Qq-17" value="&lt;span style=&quot;color: rgb(153 , 0 , 77)&quot;&gt;wait()/notify()&lt;/span&gt;&lt;br style=&quot;color: rgb(153 , 0 , 77)&quot;&gt;&lt;ul style=&quot;color: rgb(153 , 0 , 77)&quot;&gt;&lt;li style=&quot;text-align: left&quot;&gt;&lt;font color=&quot;#99004d&quot;&gt;if a thread expecting any update from any other thread go waiting state,.&lt;/font&gt;&lt;/li&gt;&lt;li style=&quot;text-align: left&quot;&gt;&lt;font color=&quot;#99004d&quot;&gt;The thread which is responsible for update , after update it should call notify() method to make waiting thread back into execution&lt;/font&gt;&lt;/li&gt;&lt;/ul&gt;" style="shape=delay;whiteSpace=wrap;html=1;strokeColor=#EA6B66;" vertex="1" parent="1">
          <mxGeometry x="800" y="480" width="350" height="110" as="geometry" />
        </mxCell>
        <mxCell id="XZ_ET_w5QgRAjZi853Qq-19" value="" style="endArrow=classic;html=1;entryX=0.61;entryY=1.028;entryDx=0;entryDy=0;entryPerimeter=0;" edge="1" parent="1" target="ssqRMr3fGbRzZ1t1TIG6-2">
          <mxGeometry width="50" height="50" relative="1" as="geometry">
            <mxPoint x="323" y="477" as="sourcePoint" />
            <mxPoint x="375" y="440" as="targetPoint" />
          </mxGeometry>
        </mxCell>
      </root>
    </mxGraphModel>
  </diagram>
</mxfile>
